<svg id="Layer_1" data-name="Layer 1" xmlns="http://www.w3.org/2000/svg" viewBox="0 0 525 140"><defs><style>.cls-1{fill:#333}</style></defs><path class="cls-1" d="M81.41 21.92l-36.73 21-.18 42.26L81 106.5l36.72-21 .19-42.28zm31.51 26v35.23L94.54 93.28V67.06l-13.36 7.25-13.29-7.09v26.06L49.5 83.15V48.23l31.36 16.7v-.08.08z"/><path fill="#dc139c" d="M84.22 19.66l16.49-9.73 37.23 21.03.4 42.75-16.41 9.68-.41-42.66-37.3-21.07z"/><path fill="#fb8b00" d="M78.21 19.66L61.72 9.93 24.48 30.96l-.39 42.75 16.41 9.68.4-42.66 37.31-21.07z"/><path fill="#0169c9" d="M44.15 89.66l.07 19.15 37.1 21.26 36.95-21.51-.06-19.06-36.88 21.46-37.18-21.3z"/><path class="cls-1" d="M193.81 60.22v31.36h-7.13V60.22H170.4v31.36h-7.09V53.09h7.09v6.8a6.93 6.93 0 0 1 .64-2.66 6.94 6.94 0 0 1 3.77-3.61 7 7 0 0 1 2.7-.53h9.17a7 7 0 0 1 2.69.53 7.37 7.37 0 0 1 2.23 1.44 7.2 7.2 0 0 1 1.56 2.17 6.44 6.44 0 0 1 .65 2.66 7.5 7.5 0 0 1 .62-2.66 7.23 7.23 0 0 1 1.51-2.17 7.41 7.41 0 0 1 2.24-1.44 7 7 0 0 1 2.7-.53h9.19a6.83 6.83 0 0 1 2.77.57 7.22 7.22 0 0 1 2.26 1.51 6.86 6.86 0 0 1 1.52 2.27 7 7 0 0 1 .56 2.78v31.36h-7.11V60.22zm38.84-7.13v38.49h-7.13V53.09zm-7.49-14.81H233v7.41h-7.85zM264 84.45v-8.92h-16.88a7 7 0 0 1-2.78-.55 7.21 7.21 0 0 1-2.27-1.51 7.39 7.39 0 0 1-1.51-2.27 7 7 0 0 1-.55-2.78v-8.2a7 7 0 0 1 .55-2.78 7.15 7.15 0 0 1 1.51-2.27 7.39 7.39 0 0 1 2.27-1.51 6.81 6.81 0 0 1 2.78-.57h22.52v7.13h-22.52v8.2H264a6.88 6.88 0 0 1 2.76.56A7.21 7.21 0 0 1 269 70.5a6.93 6.93 0 0 1 2.11 5v8.92a7.11 7.11 0 0 1-.56 2.8A6.85 6.85 0 0 1 269 89.5a7.57 7.57 0 0 1-2.24 1.5 6.88 6.88 0 0 1-2.76.56h-24v-7.11zm37.49 0v-8.92h-16.87a7 7 0 0 1-2.78-.55 7.1 7.1 0 0 1-2.27-1.51 7.41 7.41 0 0 1-1.52-2.27 7.21 7.21 0 0 1-.54-2.78v-8.2a7 7 0 0 1 2.06-5 7.27 7.27 0 0 1 2.27-1.51 6.81 6.81 0 0 1 2.78-.57h22.51v7.13h-22.51v8.2h16.87a6.93 6.93 0 0 1 2.77.56 7.21 7.21 0 0 1 2.25 1.52 7 7 0 0 1 1.54 2.25 6.85 6.85 0 0 1 .57 2.78v8.92a6.94 6.94 0 0 1-.57 2.8 6.83 6.83 0 0 1-1.54 2.25 7.57 7.57 0 0 1-2.25 1.45 6.93 6.93 0 0 1-2.77.56h-24v-7.11zm21.75-31.36v38.49h-7.13V53.09zm-7.49-14.81h7.85v7.41h-7.85zm48.88 46.17a7.07 7.07 0 0 1-2.08 5 7.23 7.23 0 0 1-2.23 1.55 6.93 6.93 0 0 1-2.77.56h-19.1a6.9 6.9 0 0 1-2.75-.56 7.3 7.3 0 0 1-2.27-1.52 7.07 7.07 0 0 1-2.08-5V60.22a7 7 0 0 1 .56-2.78 7.18 7.18 0 0 1 1.52-2.27 7.27 7.27 0 0 1 2.27-1.51 6.74 6.74 0 0 1 2.75-.57h19.1a6.77 6.77 0 0 1 2.77.57 7.2 7.2 0 0 1 2.23 1.51 7 7 0 0 1 1.52 2.27 6.84 6.84 0 0 1 .56 2.78zm-26.18-24.23v24.23h19.1V60.22zm68.07 31.36h-7.13V60.22h-19.83v31.36h-7.09V53.09h7.09v6.8a7.12 7.12 0 0 1 .64-2.66 7.47 7.47 0 0 1 1.53-2.17 7.29 7.29 0 0 1 2.27-1.44 7 7 0 0 1 2.7-.53h12.72a6.85 6.85 0 0 1 2.78.57 7.06 7.06 0 0 1 2.25 1.51 7.18 7.18 0 0 1 2.1 5zM413.82 36.84v47.59a8.36 8.36 0 0 0 .65 3.26 9.23 9.23 0 0 0 1.78 2.64 9.06 9.06 0 0 0 2.64 1.79 8.47 8.47 0 0 0 3.23.65h19.91a8.31 8.31 0 0 0 3.25-.65 8.54 8.54 0 0 0 2.72-1.74 8.31 8.31 0 0 0 1.79-2.66 8.05 8.05 0 0 0 .7-3.26V60.1a8.15 8.15 0 0 0-.7-3.28A7.83 7.83 0 0 0 448 54.2v-.05a7.73 7.73 0 0 0-2.59-1.76 8 8 0 0 0-3.25-.67h-12.84a8.17 8.17 0 0 0-3.18.64 8.24 8.24 0 0 0-2.62 1.69.61.61 0 0 0-.07.1V36.84zm43.25 0h-1.24v9.93h10.35v-9.93zm21.53 3v11.88h-9.44v9.63h9.44v23.08a8.52 8.52 0 0 0 .62 3.26 8.89 8.89 0 0 0 1.81 2.66 8.93 8.93 0 0 0 2.64 1.79 8.52 8.52 0 0 0 3.24.65h13.92v-9.6h-12.6V61.34h12.68v-9.62h-12.68V39.81zm-22.41 11.88v41.1h9.63v-41.1zm-32.76 9.63h17.41v21.84h-17.41z"/></svg>